<?xml version="1.0" encoding="UTF-8"?>
<svg version="1.1" xmlns="http://www.w3.org/2000/svg" width="24" height="23">
<path d="M0 0 C7.92 0 15.84 0 24 0 C24 7.59 24 15.18 24 23 C16.08 23 8.16 23 0 23 C0 15.41 0 7.82 0 0 Z " fill="#F8FCFE" transform="translate(0,0)"/>
<path d="M0 0 C-0.804375 0.556875 -1.60875 1.11375 -2.4375 1.6875 C-5.24228216 4.21864487 -5.69381595 5.32579134 -6 9 C-5.34 8.34 -4.68 7.68 -4 7 C-3.01 7 -2.02 7 -1 7 C-1 7.66 -1 8.32 -1 9 C-0.01 9.33 0.98 9.66 2 10 C2 10.66 2 11.32 2 12 C2.66 12 3.32 12 4 12 C3.125 15.875 3.125 15.875 2 17 C4.43717258 16.72965366 4.43717258 16.72965366 7 16 C9.02350324 12.96474514 9.32124018 11.80573798 9.625 8.3125 C9.69976563 7.50425781 9.77453125 6.69601563 9.8515625 5.86328125 C9.90054687 5.24839844 9.94953125 4.63351563 10 4 C10.99 4.33 11.98 4.66 13 5 C13.31306141 10.21769009 12.97861836 13.63135974 10 18 C5.41427634 20.86607729 1.98351766 21.33915616 -3.375 21.1875 C-4.62023437 21.16042969 -5.86546875 21.13335938 -7.1484375 21.10546875 C-8.08945313 21.07066406 -9.03046875 21.03585938 -10 21 C-10.10883596 18.62374823 -10.18766696 16.25256024 -10.25 13.875 C-10.28351562 13.20984375 -10.31703125 12.5446875 -10.3515625 11.859375 C-10.45212173 6.73085405 -9.22723319 3.9324434 -6 0 C-3.50907189 -1.24546405 -2.58919267 -0.7767578 0 0 Z " fill="#E2ECFB" transform="translate(10,2)"/>
<path d="M0 0 C7.92 0 15.84 0 24 0 C24 7.59 24 15.18 24 23 C20.7 23 17.4 23 14 23 C14.99 22.34 15.98 21.68 17 21 C21.41607586 17.78830847 21.84551009 14.16299155 22.703125 9.046875 C22.80109375 8.37140625 22.8990625 7.6959375 23 7 C22.236875 6.87625 21.47375 6.7525 20.6875 6.625 C18 6 18 6 15 4 C13.00714063 3.62633887 11.00636471 3.29259485 9 3 C8.01 2.67 7.02 2.34 6 2 C5.38125 2.61875 4.7625 3.2375 4.125 3.875 C2.75 5.25 1.375 6.625 0 8 C0 5.36 0 2.72 0 0 Z " fill="#F5FBFE" transform="translate(0,0)"/>
<path d="M0 0 C0.99 0.33 1.98 0.66 3 1 C3.31306141 6.21769009 2.97861836 9.63135974 0 14 C-4.08180257 16.72120171 -7.13653911 17.34739006 -12 17 C-12.33 15.68 -12.66 14.36 -13 13 C-8.25 9 -8.25 9 -6 9 C-6.66 10.32 -7.32 11.64 -8 13 C-5.56282742 12.72965366 -5.56282742 12.72965366 -3 12 C-0.97649676 8.96474514 -0.67875982 7.80573798 -0.375 4.3125 C-0.30023438 3.50425781 -0.22546875 2.69601563 -0.1484375 1.86328125 C-0.09945313 1.24839844 -0.05046875 0.63351563 0 0 Z " fill="#7FB7F0" transform="translate(20,6)"/>
<path d="M0 0 C-0.804375 0.556875 -1.60875 1.11375 -2.4375 1.6875 C-5.24228216 4.21864487 -5.69381595 5.32579134 -6 9 C-4.68 8.34 -3.36 7.68 -2 7 C-2.55774272 10.23490776 -3.37211508 11.97855006 -6 14 C-6.99 14 -7.98 14 -9 14 C-10.43304064 11.13391871 -10.30644155 9.18699217 -10 6 C-5.64516129 -1.69354839 -5.64516129 -1.69354839 0 0 Z " fill="#82B2EF" transform="translate(10,2)"/>
<path d="M0 0 C2.37625177 -0.10883596 4.74743976 -0.18766696 7.125 -0.25 C7.79015625 -0.28351562 8.4553125 -0.31703125 9.140625 -0.3515625 C14.24206685 -0.45159077 17.15501199 0.67007269 21 4 C21 4.99 21 5.98 21 7 C20.505 6.71125 20.01 6.4225 19.5 6.125 C16.67622565 4.85430154 13.91028694 4.16342557 10.90234375 3.46484375 C9.24558252 3.06000887 7.61798459 2.5393282 6 2 C5.38125 2.61875 4.7625 3.2375 4.125 3.875 C2.75 5.25 1.375 6.625 0 8 C0 5.36 0 2.72 0 0 Z " fill="#89DFF9" transform="translate(0,0)"/>
<path d="M0 0 C0.99 0.33 1.98 0.66 3 1 C3.17835515 5.54805635 2.99785435 8.8794254 1 13 C-0.9078584 9.8250906 -1.1609041 7.89414789 -0.625 4.25 C-0.51414062 3.45078125 -0.40328125 2.6515625 -0.2890625 1.828125 C-0.19367187 1.22484375 -0.09828125 0.6215625 0 0 Z " fill="#86DFF9" transform="translate(20,6)"/>
<path d="M0 0 C0.556875 0.268125 1.11375 0.53625 1.6875 0.8125 C0.4809375 1.5859375 0.4809375 1.5859375 -0.75 2.375 C-3.97697078 5.44455757 -4.06146257 7.46118459 -4.3125 11.8125 C-4.9725 11.8125 -5.6325 11.8125 -6.3125 11.8125 C-7.125 8.625 -7.125 8.625 -7.3125 4.8125 C-3.59107523 -0.29116826 -3.59107523 -0.29116826 0 0 Z " fill="#84C0F2" transform="translate(8.3125,1.1875)"/>
<path d="M0 0 C-1.55603771 3.81936528 -3.95604931 6.26044438 -7 9 C-7.66 9 -8.32 9 -9 9 C-9 6 -9 6 -7.5390625 4.39453125 C-6.59160156 3.61142578 -6.59160156 3.61142578 -5.625 2.8125 C-4.68527344 2.01779297 -4.68527344 2.01779297 -3.7265625 1.20703125 C-2 0 -2 0 0 0 Z " fill="#79ADEE" transform="translate(11,12)"/>
<path d="M0 0 C2.31 0 4.62 0 7 0 C2.25 5.75 2.25 5.75 0 8 C0 5.36 0 2.72 0 0 Z " fill="#F8FBFE" transform="translate(0,0)"/>
<path d="M0 0 C0.33 0.66 0.66 1.32 1 2 C1.66 2.33 2.32 2.66 3 3 C2.0409375 3.1546875 2.0409375 3.1546875 1.0625 3.3125 C0.381875 3.539375 -0.29875 3.76625 -1 4 C-1.33 4.99 -1.66 5.98 -2 7 C-2.66 7 -3.32 7 -4 7 C-4.33 7.99 -4.66 8.98 -5 10 C-5.33 9.01 -5.66 8.02 -6 7 C-4.78515625 5.17578125 -4.78515625 5.17578125 -3.0625 3.3125 C-2.49660156 2.68988281 -1.93070313 2.06726563 -1.34765625 1.42578125 C-0.90292969 0.95527344 -0.45820313 0.48476562 0 0 Z " fill="#CCE2F9" transform="translate(11,12)"/>
<path d="M0 0 C-0.33 1.32 -0.66 2.64 -1 4 C-3.60582371 4.93065133 -4.64198224 5.14917407 -7.25 4.0625 C-7.8275 3.711875 -8.405 3.36125 -9 3 C-2.25 0 -2.25 0 0 0 Z " fill="#85C8F4" transform="translate(20,17)"/>
</svg>
